<svg width="303" height="840" viewBox="0 0 303 840" fill="none" xmlns="http://www.w3.org/2000/svg">
<path d="M-1.26169 425.689C4.59888 424.001 8.03099 418.052 6.40411 412.401C4.77723 406.75 -1.29259 403.536 -7.15317 405.223C-13.0137 406.911 -16.4458 412.86 -14.8189 418.511C-13.192 424.162 -7.12227 427.376 -1.26169 425.689Z" fill="#F36623"/>
<path d="M30.326 147.653C32.9109 146.909 34.4366 144.327 33.7338 141.885C33.031 139.444 30.3658 138.068 27.7809 138.812C25.196 139.556 23.6703 142.139 24.3731 144.58C25.0759 147.021 27.7411 148.397 30.326 147.653Z" fill="#F36623"/>
<path d="M134.093 117.507C136.189 116.904 138.371 118.11 138.974 120.206C139.578 122.302 138.371 124.483 136.276 125.087C134.18 125.69 131.998 124.484 131.395 122.388C130.791 120.292 131.998 118.111 134.093 117.507Z" fill="#F36623" fill-opacity="0.8"/>
<path d="M95.2676 313.361C100.71 311.794 103.9 306.282 102.394 301.049C100.887 295.817 95.2545 292.845 89.8125 294.411C84.3706 295.978 81.1801 301.49 82.6865 306.723C84.1929 311.955 89.8257 314.927 95.2676 313.361Z" fill="#F36623"/>
<path d="M157.316 81.2738C162.758 79.7072 165.899 74.0255 164.333 68.5835C162.766 63.1416 157.085 60.0001 151.643 61.5667C146.201 63.1333 143.059 68.8148 144.626 74.2568C146.192 79.6988 151.874 82.8404 157.316 81.2738Z" fill="#F36623"/>
<path d="M19.7101 211.995C22.8514 211.091 26.0783 212.732 26.9223 215.664C27.7663 218.596 25.9063 221.702 22.765 222.606C19.6237 223.511 16.3968 221.869 15.5528 218.937C14.7088 216.005 16.5688 212.899 19.7101 211.995Z" fill="#F36623"/>
<path d="M106.792 143.844C110.984 142.637 113.403 138.261 112.197 134.069C110.99 129.878 106.614 127.458 102.422 128.665C98.2309 129.871 95.8112 134.247 97.0178 138.439C98.2245 142.631 102.601 145.05 106.792 143.844Z" fill="#F36623"/>
<path d="M119.287 170.144C122.82 169.127 124.859 165.439 123.842 161.907C122.825 158.374 119.137 156.335 115.605 157.352C112.073 158.369 110.033 162.057 111.05 165.589C112.067 169.122 115.755 171.161 119.287 170.144Z" fill="#F36623"/>
<path d="M17.9209 151.63C22.0143 149.89 23.9276 145.194 22.1943 141.141C20.461 137.089 15.7376 135.213 11.6442 136.953C7.55075 138.693 5.63755 143.389 7.37083 147.441C9.1041 151.494 13.8275 153.369 17.9209 151.63Z" fill="#F36623"/>
<path d="M135.186 121.297L29.1631 143.611" stroke="#F36623" stroke-opacity="0.32" stroke-width="2.81528" stroke-linecap="round"/>
<path d="M92.4303 303.508L29.1631 143.611" stroke="#F36623" stroke-opacity="0.32" stroke-width="1.34702" stroke-linecap="round"/>
<path d="M154.479 71.4194L135.185 121.296" stroke="#F36623" stroke-opacity="0.32" stroke-width="2.81528" stroke-linecap="round"/>
<path d="M20.8577 217.408L29.1608 143.61" stroke="#F36623" stroke-opacity="0.32" stroke-width="2.81528" stroke-linecap="round"/>
<path d="M-4.31363 415.077L92.4302 303.506" stroke="#F36623" stroke-opacity="0.32" stroke-width="1.34702" stroke-linecap="round"/>
<path d="M92.4278 303.507L20.8574 217.409" stroke="#F36623" stroke-opacity="0.32" stroke-width="2.81528" stroke-linecap="round"/>
<path d="M-4.31153 415.077L20.8619 217.409" stroke="#F36623" stroke-opacity="0.32" stroke-width="1.34702" stroke-linecap="round"/>
<path d="M104.338 136.742L135.185 121.296" stroke="#F36623" stroke-opacity="0.32" stroke-width="2.81528" stroke-linecap="round"/>
<path d="M104.338 136.742L154.479 71.4195" stroke="#F36623" stroke-opacity="0.32" stroke-width="2.81528" stroke-linecap="round"/>
<path d="M117.176 164.237L135.183 121.297" stroke="#F36623" stroke-opacity="0.32" stroke-width="2.81528" stroke-linecap="round"/>
<path d="M104.337 136.743L20.8577 217.409" stroke="#F36623" stroke-opacity="0.32" stroke-width="2.81528" stroke-linecap="round"/>
<path d="M154.478 71.4206L117.177 164.237" stroke="#F36623" stroke-opacity="0.32" stroke-width="2.81528" stroke-linecap="round"/>
<path d="M218.167 67.6166C221.096 66.7734 224.157 68.4659 225 71.395C225.843 74.324 224.151 77.3849 221.222 78.2281C218.293 79.0713 215.232 77.3788 214.389 74.4498C213.546 71.5208 215.238 68.4598 218.167 67.6166Z" fill="#F36623"/>
<path d="M154.697 70.8539L220.642 73.8817" stroke="#F36623" stroke-opacity="0.32" stroke-width="1.34702" stroke-linecap="round"/>
<path d="M68.7501 118.396C66.9102 115.966 67.3891 112.501 69.8191 110.661C72.2491 108.821 75.7139 109.3 77.5538 111.73C79.3937 114.16 78.9148 117.625 76.4848 119.465C74.0548 121.305 70.59 120.826 68.7501 118.396Z" fill="#F36623"/>
<path d="M158.657 67.4552L73.1588 114.8" stroke="#F36623" stroke-opacity="0.32" stroke-width="1.34702" stroke-linecap="round"/>
<path d="M117.179 164.236L20.86 217.409" stroke="#F36623" stroke-opacity="0.32" stroke-width="1.34702" stroke-linecap="round"/>
<path d="M92.4302 303.506L-40.834 248.301" stroke="#F36623" stroke-opacity="0.32" stroke-width="1.34702" stroke-linecap="round"/>
<path d="M-4.3145 415.077L-40.8348 248.302" stroke="#F36623" stroke-opacity="0.32" stroke-width="1.34702" stroke-linecap="round"/>
<path d="M20.8598 217.408L-40.834 248.301" stroke="#F36623" stroke-opacity="0.32" stroke-width="2.81528" stroke-linecap="round"/>
<path d="M104.339 136.744L117.178 164.237" stroke="#F36623" stroke-opacity="0.32" stroke-width="2.81528" stroke-linecap="round"/>
<path d="M14.6455 144.506L104.338 136.743" stroke="#F36623" stroke-opacity="0.32" stroke-width="1.34702" stroke-linecap="round"/>
<path d="M14.6455 144.506L117.178 164.236" stroke="#F36623" stroke-opacity="0.32" stroke-width="1.34702" stroke-linecap="round"/>
<path d="M14.6448 144.506L-40.8359 248.301" stroke="#F36623" stroke-opacity="0.32" stroke-width="1.34702" stroke-linecap="round"/>
<path d="M14.6452 144.507L-40.3877 147.217" stroke="#F36623" stroke-opacity="0.32" stroke-width="2.81528" stroke-linecap="round"/>
<path d="M-0.788528 200.659C0.672471 200.239 2.20747 201.087 2.62806 202.548C3.04865 204.009 2.19989 205.544 0.738891 205.965C-0.722109 206.385 -2.2571 205.537 -2.6777 204.076C-3.09829 202.615 -2.24953 201.08 -0.788528 200.659Z" fill="#F36623" fill-opacity="0.32"/>
<path d="M30.6667 299.947C32.3414 299.464 34.0892 300.431 34.5713 302.106C35.0534 303.78 34.087 305.528 32.4123 306.01C30.7375 306.492 28.9897 305.526 28.5076 303.851C28.0255 302.176 28.9919 300.429 30.6667 299.947Z" fill="#F36623" fill-opacity="0.32"/>
<path d="M82.2321 269.507C84.1168 268.964 86.0823 270.051 86.6249 271.936C87.1675 273.821 86.0806 275.786 84.1959 276.329C82.3112 276.871 80.3458 275.784 79.8032 273.9C79.2607 272.015 80.3474 270.049 82.2321 269.507Z" fill="#F36623" fill-opacity="0.32"/>
<path d="M109.001 328.284C110.884 327.742 112.851 328.83 113.393 330.713C113.936 332.596 112.848 334.564 110.964 335.106C109.081 335.648 107.114 334.56 106.572 332.677C106.03 330.794 107.117 328.826 109.001 328.284Z" fill="#F36623" fill-opacity="0.32"/>
<path d="M41.8625 237.627C42.4883 237.447 43.1466 237.811 43.3268 238.437C43.507 239.062 43.1429 239.721 42.5171 239.901C41.8913 240.081 41.2331 239.717 41.0529 239.091C40.8727 238.465 41.2366 237.807 41.8625 237.627Z" fill="#F36623" fill-opacity="0.32"/>
<path d="M108.255 63.3861C109.306 63.0838 110.396 63.696 110.696 64.7355C110.995 65.775 110.386 66.8767 109.346 67.176C108.307 67.4752 107.205 66.866 106.906 65.8266C106.607 64.7871 107.216 63.6854 108.255 63.3861Z" fill="#F36623" fill-opacity="0.32"/>
<path d="M97.1711 399.814C99.2641 399.212 100.472 397.027 99.8699 394.933C99.2673 392.84 97.0821 391.632 94.989 392.235C92.896 392.837 91.6877 395.022 92.2902 397.116C92.8928 399.209 95.078 400.417 97.1711 399.814Z" fill="#F36623" fill-opacity="0.32"/>
<path d="M166.513 238.677C168.606 238.075 169.814 235.889 169.212 233.796C168.609 231.703 166.424 230.495 164.331 231.097C162.238 231.7 161.029 233.885 161.632 235.978C162.235 238.071 164.42 239.28 166.513 238.677Z" fill="#F36623" fill-opacity="0.32"/>
<path d="M117.659 242.892C119.752 242.29 120.961 240.105 120.358 238.012C119.756 235.919 117.57 234.71 115.477 235.313C113.384 235.915 112.176 238.101 112.779 240.194C113.381 242.287 115.566 243.495 117.659 242.892Z" fill="#F36623" fill-opacity="0.32"/>
<path d="M-9.1517 797.73C-14.607 795.974 -17.6568 790.287 -15.9636 785.026C-14.2704 779.766 -8.47544 776.925 -3.02018 778.681C2.43508 780.436 5.48483 786.124 3.79166 791.385C2.09849 796.645 -3.69644 799.486 -9.1517 797.73Z" fill="#F36623"/>
<path d="M25.9261 631.973C26.2372 628.005 29.7317 625.056 33.7313 625.386C37.7309 625.716 40.721 629.201 40.4099 633.169C40.0989 637.136 36.6044 640.085 32.6048 639.755C28.6052 639.425 25.615 635.941 25.9261 631.973Z" fill="#F36623"/>
<path d="M37.3229 532.379C34.5965 531.502 31.672 533.002 30.7944 535.728C29.9169 538.455 31.4172 541.379 34.1436 542.257C36.87 543.134 39.7945 541.634 40.6721 538.908C41.5496 536.181 40.0493 533.257 37.3229 532.379Z" fill="#F36623"/>
<path d="M-5.97409 787.852L-93.5811 680.233" stroke="#F36623" stroke-opacity="0.32" stroke-width="1.26581" stroke-linecap="round"/>
<path d="M-5.97671 787.852L-23.8455 601.457" stroke="#F36623" stroke-opacity="0.32" stroke-width="1.26581" stroke-linecap="round"/>
<path d="M-93.5824 680.233L33.1992 632.275" stroke="#F36623" stroke-opacity="0.32" stroke-width="1.26581" stroke-linecap="round"/>
<path d="M-5.9731 787.853L33.2015 632.276" stroke="#F36623" stroke-opacity="0.32" stroke-width="1.26581" stroke-linecap="round"/>
<path d="M-23.8429 601.456L33.2005 632.275" stroke="#F36623" stroke-opacity="0.32" stroke-width="2.64554" stroke-linecap="round"/>
<path d="M-5.97458 787.853L145.201 741.518" stroke="#F36623" stroke-opacity="0.32" stroke-width="1.26581" stroke-linecap="round"/>
<path d="M-15.8767 533.164L33.201 632.275" stroke="#F36623" stroke-opacity="0.32" stroke-width="1.26581" stroke-linecap="round"/>
<path d="M145.203 741.517L33.2018 632.275" stroke="#F36623" stroke-opacity="0.32" stroke-width="1.26581" stroke-linecap="round"/>
<path d="M35.7312 537.318L33.1984 632.276" stroke="#F36623" stroke-opacity="0.32" stroke-width="1.26581" stroke-linecap="round"/>
<path d="M-15.8771 533.165L35.7334 537.318" stroke="#F36623" stroke-opacity="0.32" stroke-width="2.64554" stroke-linecap="round"/>
</svg>
