<svg width="1440" height="1350" viewBox="0 0 1440 1350" fill="none" xmlns="http://www.w3.org/2000/svg">
<g filter="url(#filter0_d_164_2)">
<rect width="1440" height="998" fill="#141313"/>
<path d="M4.85475 552.815C11.1766 551.212 15.0489 544.971 13.5038 538.875C11.9586 532.779 5.58111 529.136 -0.740763 530.739C-7.06264 532.341 -10.9349 538.582 -9.38975 544.678C-7.84459 550.774 -1.46713 554.417 4.85475 552.815Z" fill="#F36623"/>
<path d="M48.1486 256.721C50.9369 256.014 52.6562 253.306 51.9887 250.673C51.3212 248.039 48.5197 246.477 45.7314 247.184C42.943 247.891 41.2237 250.599 41.8912 253.232C42.5587 255.866 45.3602 257.427 48.1486 256.721Z" fill="#F36623"/>
<path d="M160.093 228.057C162.354 227.484 164.644 228.848 165.217 231.109C165.79 233.37 164.426 235.66 162.165 236.233C159.905 236.806 157.614 235.442 157.041 233.181C156.468 230.921 157.832 228.63 160.093 228.057Z" fill="#F36623"/>
<path d="M111.88 436.063C117.751 434.575 121.35 428.793 119.919 423.148C118.488 417.504 112.57 414.134 106.699 415.622C100.829 417.11 97.2301 422.892 98.6608 428.537C100.092 434.181 106.01 437.551 111.88 436.063Z" fill="#F36623"/>
<path d="M186.156 190.125C192.026 188.637 195.579 182.672 194.091 176.802C192.603 170.932 186.638 167.379 180.768 168.867C174.897 170.355 171.345 176.32 172.833 182.19C174.321 188.06 180.286 191.613 186.156 190.125Z" fill="#F36623"/>
<path d="M34.5961 325.128C37.9846 324.269 41.3773 326.135 42.1789 329.297C42.9806 332.46 40.886 335.716 37.4974 336.575C34.1089 337.434 30.7162 335.569 29.9145 332.406C29.1129 329.243 31.2075 325.987 34.5961 325.128Z" fill="#F36623"/>
<path d="M130.01 255.271C134.531 254.125 137.268 249.53 136.122 245.009C134.976 240.487 130.381 237.751 125.86 238.897C121.338 240.043 118.602 244.637 119.748 249.159C120.894 253.68 125.488 256.417 130.01 255.271Z" fill="#F36623"/>
<path d="M142.463 283.81C146.274 282.844 148.58 278.972 147.614 275.162C146.648 271.351 142.776 269.045 138.966 270.011C135.155 270.977 132.849 274.849 133.815 278.659C134.781 282.47 138.653 284.776 142.463 283.81Z" fill="#F36623"/>
<path d="M34.7533 260.546C39.1881 258.827 41.3941 253.874 39.6804 249.482C37.9667 245.091 32.9824 242.925 28.5475 244.644C24.1127 246.363 21.9068 251.317 23.6205 255.708C25.3341 260.099 30.3184 262.265 34.7533 260.546Z" fill="#F36623"/>
<path d="M161.131 232.146L47.0439 252.361" stroke="#F36623" stroke-opacity="0.32" stroke-width="3.01064" stroke-linecap="round"/>
<path d="M109.185 425.434L47.0439 252.361" stroke="#F36623" stroke-opacity="0.32" stroke-width="1.4405" stroke-linecap="round"/>
<path d="M183.462 179.495L161.13 232.144" stroke="#F36623" stroke-opacity="0.32" stroke-width="3.01064" stroke-linecap="round"/>
<path d="M35.6374 330.954L47.042 252.36" stroke="#F36623" stroke-opacity="0.32" stroke-width="3.01064" stroke-linecap="round"/>
<path d="M1.95695 541.368L109.186 425.433" stroke="#F36623" stroke-opacity="0.32" stroke-width="1.4405" stroke-linecap="round"/>
<path d="M109.183 425.434L35.6367 330.955" stroke="#F36623" stroke-opacity="0.32" stroke-width="3.01064" stroke-linecap="round"/>
<path d="M1.95884 541.368L35.6416 330.955" stroke="#F36623" stroke-opacity="0.32" stroke-width="1.4405" stroke-linecap="round"/>
<path d="M127.631 247.596L161.131 232.144" stroke="#F36623" stroke-opacity="0.32" stroke-width="3.01064" stroke-linecap="round"/>
<path d="M127.63 247.596L183.462 179.495" stroke="#F36623" stroke-opacity="0.32" stroke-width="3.01064" stroke-linecap="round"/>
<path d="M140.409 277.424L161.128 232.145" stroke="#F36623" stroke-opacity="0.32" stroke-width="3.01064" stroke-linecap="round"/>
<path d="M127.629 247.597L35.6375 330.955" stroke="#F36623" stroke-opacity="0.32" stroke-width="3.01064" stroke-linecap="round"/>
<path d="M183.46 179.496L140.41 277.424" stroke="#F36623" stroke-opacity="0.32" stroke-width="3.01064" stroke-linecap="round"/>
<path d="M251.666 177.614C254.825 176.813 258.039 178.727 258.84 181.886C259.641 185.046 257.727 188.26 254.567 189.061C251.408 189.861 248.194 187.947 247.393 184.788C246.592 181.628 248.506 178.415 251.666 177.614Z" fill="#F36623"/>
<path d="M183.716 178.898L254.096 184.395" stroke="#F36623" stroke-opacity="0.32" stroke-width="1.4405" stroke-linecap="round"/>
<path d="M90.2214 226.767C88.3381 224.107 88.9687 220.42 91.6291 218.537C94.2894 216.654 97.9764 217.284 99.8596 219.944C101.743 222.605 101.112 226.292 98.4519 228.175C95.7916 230.058 92.1046 229.428 90.2214 226.767Z" fill="#F36623"/>
<path d="M188.064 175.402L95.0569 223.075" stroke="#F36623" stroke-opacity="0.32" stroke-width="1.4405" stroke-linecap="round"/>
<path d="M140.412 277.423L35.6393 330.954" stroke="#F36623" stroke-opacity="0.32" stroke-width="1.4405" stroke-linecap="round"/>
<path d="M109.186 425.433L-31.3604 361.859" stroke="#F36623" stroke-opacity="0.32" stroke-width="1.4405" stroke-linecap="round"/>
<path d="M1.95548 541.369L-31.3618 361.86" stroke="#F36623" stroke-opacity="0.32" stroke-width="1.4405" stroke-linecap="round"/>
<path d="M35.6391 330.954L-31.3609 361.858" stroke="#F36623" stroke-opacity="0.32" stroke-width="3.01064" stroke-linecap="round"/>
<path d="M127.631 247.598L140.412 277.424" stroke="#F36623" stroke-opacity="0.32" stroke-width="3.01064" stroke-linecap="round"/>
<path d="M1.95593 541.368L-166.412 477.885" stroke="#F36623" stroke-opacity="0.32" stroke-width="1.4405" stroke-linecap="round"/>
<path d="M31.4961 252.82L127.63 247.597" stroke="#F36623" stroke-opacity="0.32" stroke-width="1.4405" stroke-linecap="round"/>
<path d="M31.4961 252.82L140.41 277.423" stroke="#F36623" stroke-opacity="0.32" stroke-width="1.4405" stroke-linecap="round"/>
<path d="M31.496 252.82L-31.3623 361.859" stroke="#F36623" stroke-opacity="0.32" stroke-width="1.4405" stroke-linecap="round"/>
<path d="M31.4965 252.821L-27.418 253.831" stroke="#F36623" stroke-opacity="0.32" stroke-width="3.01064" stroke-linecap="round"/>
<path d="M13.0746 312.31C14.6506 311.91 16.2622 312.87 16.6616 314.446C17.0611 316.022 16.1013 317.634 14.5253 318.033C12.9493 318.433 11.3377 317.473 10.9382 315.897C10.5388 314.321 11.4986 312.709 13.0746 312.31Z" fill="#F36623" fill-opacity="0.32"/>
<path d="M43.292 419.511C45.0986 419.053 46.9336 420.146 47.3915 421.952C47.8494 423.759 46.7565 425.594 44.95 426.052C43.1434 426.51 41.3083 425.417 40.8504 423.61C40.3925 421.804 41.4855 419.969 43.292 419.511Z" fill="#F36623" fill-opacity="0.32"/>
<path d="M99.4507 388.743C101.484 388.228 103.547 389.457 104.063 391.49C104.578 393.523 103.349 395.587 101.316 396.102C99.2829 396.617 97.2194 395.388 96.7041 393.355C96.1888 391.322 97.4177 389.259 99.4507 388.743Z" fill="#F36623" fill-opacity="0.32"/>
<path d="M126.047 452.484C128.079 451.97 130.145 453.2 130.659 455.231C131.174 457.263 129.944 459.328 127.913 459.843C125.881 460.358 123.816 459.128 123.301 457.096C122.786 455.065 124.016 452.999 126.047 452.484Z" fill="#F36623" fill-opacity="0.32"/>
<path d="M57.3953 353.284C58.0704 353.113 58.7616 353.525 58.9327 354.2C59.1038 354.875 58.6921 355.566 58.017 355.737C57.342 355.908 56.6509 355.497 56.4798 354.822C56.3087 354.147 56.7202 353.455 57.3953 353.284Z" fill="#F36623" fill-opacity="0.32"/>
<path d="M134.331 169.324C135.464 169.037 136.609 169.729 136.893 170.85C137.178 171.971 136.489 173.128 135.367 173.412C134.246 173.697 133.089 173.008 132.805 171.886C132.521 170.765 133.21 169.608 134.331 169.324Z" fill="#F36623" fill-opacity="0.32"/>
<path d="M110.952 528.534C113.209 527.961 114.576 525.667 114.003 523.409C113.431 521.151 111.137 519.785 108.879 520.357C106.621 520.93 105.255 523.224 105.827 525.482C106.399 527.739 108.694 529.106 110.952 528.534Z" fill="#F36623" fill-opacity="0.32"/>
<path d="M190.59 358.68C192.848 358.108 194.214 355.814 193.642 353.556C193.07 351.298 190.776 349.932 188.518 350.504C186.26 351.076 184.894 353.37 185.466 355.628C186.038 357.886 188.332 359.252 190.59 358.68Z" fill="#F36623" fill-opacity="0.32"/>
<path d="M138.229 361.511C140.487 360.938 141.853 358.644 141.281 356.386C140.709 354.129 138.414 352.762 136.156 353.334C133.899 353.907 132.532 356.201 133.105 358.459C133.677 360.717 135.971 362.083 138.229 361.511Z" fill="#F36623" fill-opacity="0.32"/>
<path d="M-9.14877 986.729C-14.604 984.973 -17.6538 979.285 -15.9607 974.025C-14.2675 968.764 -8.47251 965.923 -3.01725 967.679C2.43801 969.435 5.48776 975.123 3.79459 980.383C2.10142 985.644 -3.69351 988.485 -9.14877 986.729Z" fill="#F36623"/>
<path d="M25.929 820.971C26.2401 817.003 29.7346 814.055 33.7342 814.385C37.7338 814.715 40.7239 818.199 40.4129 822.167C40.1018 826.135 36.6073 829.084 32.6077 828.754C28.6081 828.423 25.618 824.939 25.929 820.971Z" fill="#F36623"/>
<path d="M37.3258 721.378C34.5994 720.5 31.6749 722 30.7974 724.727C29.9198 727.453 31.4201 730.378 34.1465 731.255C36.873 732.133 39.7974 730.633 40.675 727.906C41.5526 725.18 40.0523 722.255 37.3258 721.378Z" fill="#F36623"/>
<path d="M-5.97116 976.85L-93.5781 869.231" stroke="#F36623" stroke-opacity="0.32" stroke-width="1.26581" stroke-linecap="round"/>
<path d="M-5.97378 976.851L-23.8426 790.455" stroke="#F36623" stroke-opacity="0.32" stroke-width="1.26581" stroke-linecap="round"/>
<path d="M-93.5794 869.231L33.2021 821.273" stroke="#F36623" stroke-opacity="0.32" stroke-width="1.26581" stroke-linecap="round"/>
<path d="M-5.97017 976.851L33.2044 821.274" stroke="#F36623" stroke-opacity="0.32" stroke-width="1.26581" stroke-linecap="round"/>
<path d="M-23.8399 790.454L33.2034 821.273" stroke="#F36623" stroke-opacity="0.32" stroke-width="2.64554" stroke-linecap="round"/>
<path d="M-5.97165 976.851L145.204 930.516" stroke="#F36623" stroke-opacity="0.32" stroke-width="1.26581" stroke-linecap="round"/>
<path d="M-15.8737 722.163L33.2039 821.274" stroke="#F36623" stroke-opacity="0.32" stroke-width="1.26581" stroke-linecap="round"/>
<path d="M145.206 930.516L33.2048 821.274" stroke="#F36623" stroke-opacity="0.32" stroke-width="1.26581" stroke-linecap="round"/>
<path d="M35.7342 726.317L33.2013 821.274" stroke="#F36623" stroke-opacity="0.32" stroke-width="1.26581" stroke-linecap="round"/>
<path d="M-15.8742 722.163L35.7363 726.317" stroke="#F36623" stroke-opacity="0.32" stroke-width="2.64554" stroke-linecap="round"/>
<mask id="mask0_164_2" style="mask-type:alpha" maskUnits="userSpaceOnUse" x="0" y="0" width="1440" height="998">
<rect width="1440" height="998" fill="#D9D9D9"/>
</mask>
<g mask="url(#mask0_164_2)">
<g filter="url(#filter1_f_164_2)">
<ellipse cx="284.71" cy="466.745" rx="284.71" ry="466.745" transform="matrix(0.825117 -0.564962 0.61451 0.788909 630 267.7)" fill="#240801"/>
</g>
<g filter="url(#filter2_f_164_2)">
<ellipse cx="244.4" cy="483.17" rx="244.4" ry="483.17" transform="matrix(0.825117 -0.564962 0.61451 0.788909 478.428 412.153)" fill="#F36623"/>
</g>
<g filter="url(#filter3_f_164_2)">
<ellipse cx="258.559" cy="148.28" rx="258.559" ry="148.28" transform="matrix(0.825117 -0.564962 0.61451 0.788909 286 663.268)" fill="#FDD7D1"/>
</g>
</g>
</g>
<defs>
<filter id="filter0_d_164_2" x="-215.564" y="0" width="1659.56" height="1006" filterUnits="userSpaceOnUse" color-interpolation-filters="sRGB">
<feFlood flood-opacity="0" result="BackgroundImageFix"/>
<feColorMatrix in="SourceAlpha" type="matrix" values="0 0 0 0 0 0 0 0 0 0 0 0 0 0 0 0 0 0 127 0" result="hardAlpha"/>
<feOffset dy="4"/>
<feGaussianBlur stdDeviation="2"/>
<feComposite in2="hardAlpha" operator="out"/>
<feColorMatrix type="matrix" values="0 0 0 0 0 0 0 0 0 0 0 0 0 0 0 0 0 0 0.25 0"/>
<feBlend mode="normal" in2="BackgroundImageFix" result="effect1_dropShadow_164_2"/>
<feBlend mode="normal" in="SourceGraphic" in2="effect1_dropShadow_164_2" result="shape"/>
</filter>
<filter id="filter1_f_164_2" x="500.866" y="-206.966" width="1301.74" height="1364.07" filterUnits="userSpaceOnUse" color-interpolation-filters="sRGB">
<feFlood flood-opacity="0" result="BackgroundImageFix"/>
<feBlend mode="normal" in="SourceGraphic" in2="BackgroundImageFix" result="shape"/>
<feGaussianBlur stdDeviation="140.058" result="effect1_foregroundBlur_164_2"/>
</filter>
<filter id="filter2_f_164_2" x="337.929" y="-30.3865" width="1278.14" height="1371.28" filterUnits="userSpaceOnUse" color-interpolation-filters="sRGB">
<feFlood flood-opacity="0" result="BackgroundImageFix"/>
<feBlend mode="normal" in="SourceGraphic" in2="BackgroundImageFix" result="shape"/>
<feGaussianBlur stdDeviation="140.058" result="effect1_foregroundBlur_164_2"/>
</filter>
<filter id="filter3_f_164_2" x="78.301" y="166.907" width="1024.32" height="934.529" filterUnits="userSpaceOnUse" color-interpolation-filters="sRGB">
<feFlood flood-opacity="0" result="BackgroundImageFix"/>
<feBlend mode="normal" in="SourceGraphic" in2="BackgroundImageFix" result="shape"/>
<feGaussianBlur stdDeviation="140.058" result="effect1_foregroundBlur_164_2"/>
</filter>
</defs>
</svg>
