<svg width="1920" height="1366" viewBox="0 0 1920 1366" fill="none" xmlns="http://www.w3.org/2000/svg">
<g clip-path="url(#clip0_591_889)">
<g filter="url(#filter0_f_591_889)">
<ellipse cx="1066.69" cy="485.627" rx="113.661" ry="216.035" transform="rotate(-37.8931 1066.69 485.627)" fill="#F36623"/>
</g>
<g opacity="0.95" filter="url(#filter1_f_591_889)">
<ellipse cx="1303.27" cy="571.431" rx="186.557" ry="356.577" transform="rotate(-34.4503 1303.27 571.431)" fill="#F36623"/>
</g>
<g opacity="0.9" filter="url(#filter2_f_591_889)">
<ellipse cx="950.301" cy="617.854" rx="170.464" ry="217.289" transform="rotate(45 950.301 617.854)" fill="#F36623"/>
</g>
<path d="M21.1861 426.184C24.3983 425.323 26.3434 422.166 25.5307 419.133C24.7179 416.099 21.4551 414.337 18.2429 415.198C15.0307 416.058 13.0856 419.215 13.8984 422.249C14.7111 425.283 17.9739 427.044 21.1861 426.184Z" fill="#F36623"/>
<path d="M150.145 391.301C152.749 390.603 155.418 392.144 156.116 394.749C156.814 397.353 155.272 400.022 152.668 400.72C150.063 401.418 147.395 399.877 146.697 397.272C145.999 394.668 147.54 391.999 150.145 391.301Z" fill="#F36623" fill-opacity="0.8"/>
<path d="M97.6626 632.504C104.425 630.693 108.495 623.953 106.753 617.45C105.011 610.948 98.1167 607.145 91.3541 608.957C84.5916 610.769 80.5216 617.509 82.2636 624.011C84.0056 630.514 90.9 634.316 97.6626 632.504Z" fill="#F36623"/>
<path d="M179.68 347.044C186.443 345.232 190.456 338.281 188.644 331.519C186.833 324.756 179.882 320.743 173.119 322.555C166.357 324.366 162.343 331.317 164.155 338.08C165.967 344.842 172.917 348.856 179.68 347.044Z" fill="#F36623"/>
<path d="M6.58869 505.474C10.4923 504.428 14.4433 506.531 15.4193 510.174C16.3954 513.818 14.0251 517.615 10.1214 518.66C6.21782 519.706 2.26683 517.603 1.29077 513.959C0.314706 510.316 2.68507 506.519 6.58869 505.474Z" fill="#F36623"/>
<path d="M115.794 423.226C121.003 421.831 124.094 416.477 122.699 411.268C121.303 406.06 115.949 402.969 110.741 404.364C105.532 405.759 102.441 411.113 103.836 416.322C105.232 421.53 110.585 424.622 115.794 423.226Z" fill="#F36623"/>
<path d="M130.636 456.024C135.025 454.848 137.631 450.336 136.455 445.946C135.279 441.557 130.767 438.952 126.377 440.128C121.988 441.304 119.383 445.815 120.559 450.205C121.734 454.594 126.246 457.2 130.636 456.024Z" fill="#F36623"/>
<path d="M5.76122 430.815C10.8609 428.758 13.3334 422.998 11.2839 417.948C9.23431 412.899 3.43876 410.473 -1.66087 412.529C-6.76051 414.586 -9.233 420.346 -7.18346 425.396C-5.13391 430.445 0.661584 432.871 5.76122 430.815Z" fill="#F36623"/>
<path d="M151.409 396.009L19.8418 421.161" stroke="#F36623" stroke-opacity="0.32" stroke-width="3.48058" stroke-linecap="round"/>
<path d="M94.3813 620.26L19.8418 421.161" stroke="#F36623" stroke-opacity="0.32" stroke-width="1.66535" stroke-linecap="round"/>
<path d="M176.4 334.797L151.408 396.008" stroke="#F36623" stroke-opacity="0.32" stroke-width="3.48058" stroke-linecap="round"/>
<path d="M7.88425 512.192L19.8396 421.16" stroke="#F36623" stroke-opacity="0.32" stroke-width="3.48058" stroke-linecap="round"/>
<path d="M-27.7622 755.954L94.3811 620.259" stroke="#F36623" stroke-opacity="0.32" stroke-width="1.66535" stroke-linecap="round"/>
<path d="M94.3776 620.26L7.88281 512.193" stroke="#F36623" stroke-opacity="0.32" stroke-width="3.48058" stroke-linecap="round"/>
<path d="M-27.76 755.954L7.88857 512.192" stroke="#F36623" stroke-opacity="0.32" stroke-width="1.66535" stroke-linecap="round"/>
<path d="M112.924 414.393L151.408 396.007" stroke="#F36623" stroke-opacity="0.32" stroke-width="3.48058" stroke-linecap="round"/>
<path d="M112.924 414.395L176.401 334.798" stroke="#F36623" stroke-opacity="0.32" stroke-width="3.48058" stroke-linecap="round"/>
<path d="M128.162 448.674L151.405 396.009" stroke="#F36623" stroke-opacity="0.32" stroke-width="3.48058" stroke-linecap="round"/>
<path d="M112.923 414.394L7.88402 512.192" stroke="#F36623" stroke-opacity="0.32" stroke-width="3.48058" stroke-linecap="round"/>
<path d="M176.399 334.798L128.163 448.674" stroke="#F36623" stroke-opacity="0.32" stroke-width="3.48058" stroke-linecap="round"/>
<path d="M255.212 331.556C258.852 330.581 262.597 332.743 263.572 336.383C264.547 340.023 262.385 343.767 258.745 344.743C255.105 345.718 251.361 343.555 250.386 339.916C249.41 336.276 251.573 332.531 255.212 331.556Z" fill="#F36623"/>
<path d="M176.683 334.104L258.128 339.358" stroke="#F36623" stroke-opacity="0.32" stroke-width="1.66535" stroke-linecap="round"/>
<path d="M69.3543 390.901C67.1357 387.855 67.8071 383.583 70.8529 381.364C73.8987 379.146 78.1705 379.817 80.389 382.863C82.6076 385.909 81.9363 390.181 78.8904 392.399C75.8446 394.618 71.5728 393.946 69.3543 390.901Z" fill="#F36623"/>
<path d="M181.656 329.994L74.8858 386.557" stroke="#F36623" stroke-opacity="0.32" stroke-width="1.66535" stroke-linecap="round"/>
<path d="M128.166 448.673L7.88668 512.192" stroke="#F36623" stroke-opacity="0.32" stroke-width="1.66535" stroke-linecap="round"/>
<path d="M94.3815 620.259L-69.0815 548.965" stroke="#F36623" stroke-opacity="0.32" stroke-width="1.66535" stroke-linecap="round"/>
<path d="M7.88662 512.191L-69.0816 548.963" stroke="#F36623" stroke-opacity="0.32" stroke-width="3.48058" stroke-linecap="round"/>
<path d="M112.925 414.395L128.165 448.673" stroke="#F36623" stroke-opacity="0.32" stroke-width="3.48058" stroke-linecap="round"/>
<path d="M1.87598 421.935L112.923 414.394" stroke="#F36623" stroke-opacity="0.32" stroke-width="1.66535" stroke-linecap="round"/>
<path d="M1.87598 421.935L128.164 448.673" stroke="#F36623" stroke-opacity="0.32" stroke-width="1.66535" stroke-linecap="round"/>
<path d="M1.87501 421.936L-69.0845 548.966" stroke="#F36623" stroke-opacity="0.32" stroke-width="1.66535" stroke-linecap="round"/>
<path d="M1.87619 421.936L-66.2124 424.024" stroke="#F36623" stroke-opacity="0.32" stroke-width="3.48058" stroke-linecap="round"/>
<path d="M18.1168 614.444C20.1979 613.886 22.3362 615.121 22.8937 617.202C23.4512 619.283 22.2166 621.421 20.1355 621.979C18.0543 622.537 15.916 621.302 15.3585 619.221C14.8009 617.14 16.0356 615.001 18.1168 614.444Z" fill="#F36623" fill-opacity="0.32"/>
<path d="M82.5539 577.997C84.896 577.37 87.3007 578.758 87.9281 581.1C88.5555 583.442 87.167 585.847 84.825 586.474C82.4829 587.102 80.0784 585.713 79.451 583.371C78.8235 581.029 80.2119 578.625 82.5539 577.997Z" fill="#F36623" fill-opacity="0.32"/>
<path d="M114.296 651.267C116.636 650.64 119.043 652.03 119.67 654.37C120.297 656.71 118.907 659.117 116.567 659.744C114.227 660.371 111.82 658.981 111.193 656.641C110.566 654.301 111.956 651.894 114.296 651.267Z" fill="#F36623" fill-opacity="0.32"/>
<path d="M33.3845 537.665C34.1622 537.457 34.9676 537.922 35.1759 538.7C35.3843 539.478 34.9192 540.283 34.1415 540.491C33.3638 540.7 32.5586 540.235 32.3502 539.457C32.1419 538.679 32.6068 537.874 33.3845 537.665Z" fill="#F36623" fill-opacity="0.32"/>
<path d="M119.447 323.808C120.752 323.458 122.087 324.24 122.433 325.532C122.779 326.823 122 328.171 120.709 328.517C119.417 328.863 118.069 328.085 117.723 326.793C117.377 325.501 118.155 324.154 119.447 323.808Z" fill="#F36623" fill-opacity="0.32"/>
<path d="M98.0332 739.414C100.634 738.717 102.178 736.044 101.481 733.443C100.784 730.842 98.1108 729.298 95.5098 729.995C92.9088 730.692 91.3652 733.365 92.062 735.966C92.7588 738.567 95.4322 740.111 98.0332 739.414Z" fill="#F36623" fill-opacity="0.32"/>
<path d="M187.441 541.821C190.042 541.125 191.586 538.451 190.889 535.85C190.192 533.249 187.519 531.706 184.918 532.402C182.317 533.099 180.773 535.773 181.47 538.374C182.167 540.975 184.84 542.518 187.441 541.821Z" fill="#F36623" fill-opacity="0.32"/>
<path d="M126.956 545.911C129.557 545.214 131.101 542.541 130.404 539.94C129.707 537.339 127.034 535.795 124.433 536.492C121.832 537.189 120.288 539.862 120.985 542.463C121.682 545.064 124.355 546.608 126.956 545.911Z" fill="#F36623" fill-opacity="0.32"/>
<path d="M18.6815 1020.92C19.0928 1016.01 23.4329 1012.39 28.3752 1012.83C33.3176 1013.26 36.9907 1017.59 36.5793 1022.49C36.1679 1027.4 31.8279 1031.02 26.8856 1030.58C21.9432 1030.15 18.2701 1025.82 18.6815 1020.92Z" fill="#F36623"/>
<path d="M33.4441 897.867C30.0794 896.763 26.4539 898.598 25.3506 901.963C24.2472 905.328 26.0823 908.953 29.4469 910.057C32.8116 911.16 36.4372 909.325 37.5405 905.96C38.6438 902.596 36.8088 898.97 33.4441 897.867Z" fill="#F36623"/>
<path d="M-21.8089 1213.41L-129.391 1079.77" stroke="#F36623" stroke-opacity="0.32" stroke-width="1.56494" stroke-linecap="round"/>
<path d="M-21.8125 1213.42L-42.6455 982.853" stroke="#F36623" stroke-opacity="0.32" stroke-width="1.56494" stroke-linecap="round"/>
<path d="M-129.393 1079.77L27.6709 1021.34" stroke="#F36623" stroke-opacity="0.32" stroke-width="1.56494" stroke-linecap="round"/>
<path d="M-21.8076 1213.42L27.674 1021.34" stroke="#F36623" stroke-opacity="0.32" stroke-width="1.56494" stroke-linecap="round"/>
<path d="M-42.6418 982.853L27.6729 1021.34" stroke="#F36623" stroke-opacity="0.32" stroke-width="3.27073" stroke-linecap="round"/>
<path d="M-21.8095 1213.42L165.402 1157.15" stroke="#F36623" stroke-opacity="0.32" stroke-width="1.56494" stroke-linecap="round"/>
<path d="M-32.3325 898.478L27.6732 1021.34" stroke="#F36623" stroke-opacity="0.32" stroke-width="1.56494" stroke-linecap="round"/>
<path d="M165.404 1157.15L27.6743 1021.34" stroke="#F36623" stroke-opacity="0.32" stroke-width="1.56494" stroke-linecap="round"/>
<path d="M31.4422 903.964L27.6699 1021.34" stroke="#F36623" stroke-opacity="0.32" stroke-width="1.56494" stroke-linecap="round"/>
<path d="M-32.3333 898.479L31.4448 903.963" stroke="#F36623" stroke-opacity="0.32" stroke-width="3.27073" stroke-linecap="round"/>
</g>
<defs>
<filter id="filter0_f_591_889" x="613.178" y="8.02017" width="907.018" height="955.214" filterUnits="userSpaceOnUse" color-interpolation-filters="sRGB">
<feFlood flood-opacity="0" result="BackgroundImageFix"/>
<feBlend mode="normal" in="SourceGraphic" in2="BackgroundImageFix" result="shape"/>
<feGaussianBlur stdDeviation="146.667" result="effect1_foregroundBlur_591_889"/>
</filter>
<filter id="filter1_f_591_889" x="728.375" y="-62.2586" width="1149.79" height="1267.38" filterUnits="userSpaceOnUse" color-interpolation-filters="sRGB">
<feFlood flood-opacity="0" result="BackgroundImageFix"/>
<feBlend mode="normal" in="SourceGraphic" in2="BackgroundImageFix" result="shape"/>
<feGaussianBlur stdDeviation="160.6" result="effect1_foregroundBlur_591_889"/>
</filter>
<filter id="filter2_f_591_889" x="450.475" y="118.027" width="999.654" height="999.654" filterUnits="userSpaceOnUse" color-interpolation-filters="sRGB">
<feFlood flood-opacity="0" result="BackgroundImageFix"/>
<feBlend mode="normal" in="SourceGraphic" in2="BackgroundImageFix" result="shape"/>
<feGaussianBlur stdDeviation="152.267" result="effect1_foregroundBlur_591_889"/>
</filter>
<clipPath id="clip0_591_889">
<rect width="1920" height="1365.33" fill="white"/>
</clipPath>
</defs>
</svg>
