<?xml version="1.0" encoding="UTF-8"?>
<svg id="Layer_2" data-name="Layer 2" xmlns="http://www.w3.org/2000/svg" viewBox="0 0 4014.42 1629.16">
  <defs>
    <style>
      .cls-1 {
        fill: #fff;
      }

      .cls-2 {
        fill: #f36623;
      }
    </style>
  </defs>
  <g id="Analytics">
    <g id="Layer_5" data-name="Layer 5">
      <g id="Analytics-2" data-name="Analytics">
        <g>
          <rect class="cls-1" x="3103.91" y="881.17" width="25.1" height="358.52"/>
          <polygon class="cls-1" points="1529.2 881.17 1529.2 1221.04 1244.83 881.17 1212.26 881.17 1512.07 1239.69 1529.2 1239.69 1541.74 1239.69 1554.29 1239.69 1554.29 881.17 1529.2 881.17"/>
          <path class="cls-1" d="M1308.97,1236.64h31.32l-223.18-329.31-15.66-23.11-238.84,352.42h31.32l110.92-163.66h193.21l110.92,163.66Zm-287.12-188.76l79.6-117.45,79.6,117.45h-159.19Z"/>
          <path class="cls-1" d="M2047.14,1236.64h31.32l-223.18-329.31-15.66-23.11-238.84,352.42h31.32l110.92-163.66h193.21l110.92,163.66Zm-287.12-188.76l79.6-117.45,79.6,117.45h-159.19Z"/>
          <polygon class="cls-1" points="3035.79 877.58 2723.28 877.58 2723.28 902.68 2870.87 902.68 2870.87 1239.69 2895.97 1239.69 2895.97 902.68 3035.79 902.68 3035.79 877.58"/>
          <polygon class="cls-1" points="2152.79 1214.59 2152.79 881.17 2127.69 881.17 2127.69 1214.59 2127.68 1214.59 2127.68 1239.69 2324.89 1239.69 2324.89 1214.59 2152.79 1214.59"/>
          <path class="cls-1" d="M3552.95,1105.24c-19.26,63.58-78.41,110-148.2,110-85.37,0-154.82-69.45-154.82-154.82s69.45-154.82,154.82-154.82c69.79,0,128.93,46.42,148.2,110h25.39c-19.95-77.23-90.21-134.45-173.59-134.45-98.85,0-179.26,80.42-179.26,179.26s80.42,179.26,179.26,179.26c83.38,0,153.64-57.22,173.59-134.45h-25.39Z"/>
          <path class="cls-1" d="M4014.42,1069.39c0-6.97-.41-13.85-1.19-20.61h-331.51c10.11-75.66,75.06-134.2,153.44-134.2,59.03,0,110.44,33.21,136.55,81.92h27.21c-27.98-62.62-90.85-106.36-163.75-106.36-91.87,0-167.81,69.48-178.07,158.65h-.01v.21c-.77,6.7-1.18,13.5-1.18,20.4,0,1.18,.02,2.35,.04,3.53l-.04,.95h334.01c-2.38,83.3-70.88,150.34-154.75,150.34-65.34,0-121.35-40.69-144.04-98.05h-26c23.8,71.11,91.03,122.5,170.04,122.5,97.35,0,176.82-78,179.2-174.78h.06l-.05-.95c.02-1.18,.05-2.35,.05-3.54Z"/>
          <polygon class="cls-1" points="2686.68 877.58 2652.69 877.58 2521.46 1032.89 2390.24 877.58 2356.25 877.58 2508.62 1058.49 2508.62 1068.19 2508.62 1158.78 2508.62 1239.69 2533.72 1239.69 2533.72 1088.28 2534.16 1058.06 2686.68 877.58"/>
          <rect class="cls-1" y="391.78" width="25.1" height="358.52"/>
          <polygon class="cls-1" points="381.83 391.78 381.83 731.66 97.46 391.78 64.89 391.78 364.71 750.31 381.83 750.31 394.37 750.31 406.92 750.31 406.92 391.78 381.83 391.78"/>
          <polygon class="cls-1" points="771.7 391.78 771.7 731.66 487.33 391.78 454.76 391.78 754.58 750.31 771.7 750.31 784.25 750.31 796.8 750.31 796.8 391.78 771.7 391.78"/>
          <polygon class="cls-1" points="1689.94 394.84 1658.62 394.84 1451.1 701.04 1243.58 394.84 1212.26 394.84 1451.1 747.25 1466.76 724.15 1466.76 724.15 1689.94 394.84"/>
          <path class="cls-1" d="M2005.6,747.25h31.32l-223.18-329.31-15.66-23.11-238.84,352.42h31.32l110.92-163.66h193.21l110.92,163.66Zm-287.12-188.76l79.6-117.45,79.6,117.45h-159.19Z"/>
          <path class="cls-1" d="M1102.46,412.73c1.9,0,3.18,.98,3.82,2.28l17.15-11.65L925.63,112.06l-20.76,14.1,195.09,287.31c.66-.45,1.49-.73,2.5-.73Z"/>
          <rect class="cls-1" x="803.79" y="1157.94" width="25.1" height="352.12" transform="translate(-608.41 688.97) rotate(-34.18)"/>
          <path class="cls-1" d="M1095.58,720.17c-4.73,3.77-11.56,3.87-17.25,5.1-.53,.11-1.02,.14-1.49,.1l-294.25,434.24,20.78,14.08,302.56-446.51-10.35-7.01Z"/>
          <g>
            <circle class="cls-2" cx="731.88" cy="1203.17" r="84.47" transform="translate(-572.99 1732.87) rotate(-80.78)"/>
            <path class="cls-2" d="M1043.15,752.4c-102.64,0-186.14-83.5-186.14-186.14s83.5-186.14,186.14-186.14,186.14,83.5,186.14,186.14-83.5,186.14-186.14,186.14Zm0-347.17c-88.8,0-161.04,72.24-161.04,161.04s72.24,161.04,161.04,161.04,161.04-72.24,161.04-161.04-72.24-161.04-161.04-161.04Z"/>
            <circle class="cls-2" cx="894.2" cy="84.47" r="84.47" transform="translate(202.18 657.03) rotate(-45)"/>
            <circle class="cls-2" cx="963.15" cy="1544.7" r="84.47" transform="translate(-810.17 1133.48) rotate(-45)"/>
          </g>
        </g>
      </g>
    </g>
  </g>
</svg>