<svg width="1989" height="1157" viewBox="0 0 1989 1157" fill="none" xmlns="http://www.w3.org/2000/svg">
<path d="M290.738 669.57C296.599 667.883 300.031 661.934 298.404 656.282C296.777 650.631 290.707 647.417 284.847 649.105C278.986 650.792 275.554 656.741 277.181 662.392C278.808 668.043 284.878 671.257 290.738 669.57Z" fill="#F36623"/>
<path d="M322.326 391.534C324.911 390.79 326.437 388.207 325.734 385.766C325.031 383.325 322.366 381.949 319.781 382.693C317.196 383.437 315.67 386.02 316.373 388.461C317.076 390.902 319.741 392.278 322.326 391.534Z" fill="#F36623"/>
<path d="M426.093 361.388C428.189 360.785 430.371 361.991 430.974 364.087C431.578 366.183 430.371 368.365 428.276 368.968C426.18 369.571 423.998 368.365 423.395 366.269C422.791 364.173 423.998 361.992 426.093 361.388Z" fill="#F36623" fill-opacity="0.8"/>
<path d="M387.268 557.242C392.71 555.675 395.9 550.163 394.394 544.93C392.887 539.698 387.254 536.726 381.813 538.293C376.371 539.859 373.18 545.371 374.687 550.604C376.193 555.836 381.826 558.808 387.268 557.242Z" fill="#F36623"/>
<path d="M449.316 325.155C454.758 323.588 457.899 317.907 456.333 312.465C454.766 307.023 449.085 303.881 443.643 305.448C438.201 307.014 435.059 312.696 436.626 318.138C438.192 323.58 443.874 326.722 449.316 325.155Z" fill="#F36623"/>
<path d="M311.71 455.876C314.851 454.971 318.078 456.613 318.922 459.545C319.766 462.477 317.906 465.583 314.765 466.487C311.624 467.392 308.397 465.75 307.553 462.818C306.709 459.886 308.569 456.78 311.71 455.876Z" fill="#F36623"/>
<path d="M398.792 387.725C402.984 386.518 405.403 382.142 404.197 377.95C402.99 373.759 398.614 371.339 394.422 372.546C390.231 373.753 387.811 378.129 389.018 382.32C390.224 386.512 394.601 388.931 398.792 387.725Z" fill="#F36623"/>
<path d="M411.287 414.025C414.82 413.008 416.859 409.32 415.842 405.788C414.825 402.255 411.137 400.216 407.605 401.233C404.073 402.25 402.033 405.938 403.05 409.47C404.067 413.003 407.755 415.042 411.287 414.025Z" fill="#F36623"/>
<path d="M258.913 492.102C258.713 487.871 255.094 484.619 250.829 484.838C246.564 485.057 243.268 488.664 243.468 492.895C243.667 497.125 247.287 500.377 251.552 500.159C255.817 499.94 259.113 496.333 258.913 492.102Z" fill="#F36623" fill-opacity="0.8"/>
<path d="M309.921 395.511C314.014 393.771 315.928 389.075 314.194 385.023C312.461 380.97 307.738 379.095 303.644 380.834C299.551 382.574 297.638 387.27 299.371 391.323C301.104 395.375 305.828 397.251 309.921 395.511Z" fill="#F36623"/>
<path d="M250.085 385.792C253.014 384.948 256.075 386.641 256.918 389.57C257.761 392.499 256.069 395.56 253.14 396.403C250.211 397.246 247.15 395.554 246.307 392.625C245.464 389.696 247.156 386.635 250.085 385.792Z" fill="#F36623" fill-opacity="0.8"/>
<path d="M427.186 365.178L321.163 387.493" stroke="#F36623" stroke-opacity="0.32" stroke-width="2.81528" stroke-linecap="round"/>
<path d="M384.43 547.389L321.163 387.493" stroke="#F36623" stroke-opacity="0.32" stroke-width="1.34702" stroke-linecap="round"/>
<path d="M446.479 315.301L427.185 365.177" stroke="#F36623" stroke-opacity="0.32" stroke-width="2.81528" stroke-linecap="round"/>
<path d="M312.858 461.289L321.161 387.491" stroke="#F36623" stroke-opacity="0.32" stroke-width="2.81528" stroke-linecap="round"/>
<path d="M287.686 658.958L384.43 547.387" stroke="#F36623" stroke-opacity="0.32" stroke-width="1.34702" stroke-linecap="round"/>
<path d="M384.428 547.388L312.857 461.291" stroke="#F36623" stroke-opacity="0.32" stroke-width="2.81528" stroke-linecap="round"/>
<path d="M287.688 658.958L312.862 461.29" stroke="#F36623" stroke-opacity="0.32" stroke-width="1.34702" stroke-linecap="round"/>
<path d="M396.338 380.623L427.185 365.177" stroke="#F36623" stroke-opacity="0.32" stroke-width="2.81528" stroke-linecap="round"/>
<path d="M396.338 380.623L446.479 315.3" stroke="#F36623" stroke-opacity="0.32" stroke-width="2.81528" stroke-linecap="round"/>
<path d="M409.176 408.118L427.183 365.178" stroke="#F36623" stroke-opacity="0.32" stroke-width="2.81528" stroke-linecap="round"/>
<path d="M396.337 380.624L312.858 461.29" stroke="#F36623" stroke-opacity="0.32" stroke-width="2.81528" stroke-linecap="round"/>
<path d="M446.478 315.302L409.177 408.118" stroke="#F36623" stroke-opacity="0.32" stroke-width="2.81528" stroke-linecap="round"/>
<path d="M510.167 311.498C513.096 310.655 516.157 312.347 517 315.276C517.843 318.205 516.151 321.266 513.222 322.109C510.293 322.952 507.232 321.26 506.389 318.331C505.546 315.402 507.238 312.341 510.167 311.498Z" fill="#F36623"/>
<path d="M446.697 314.735L512.642 317.763" stroke="#F36623" stroke-opacity="0.32" stroke-width="1.34702" stroke-linecap="round"/>
<path d="M360.75 362.277C358.91 359.847 359.389 356.383 361.819 354.543C364.249 352.703 367.714 353.182 369.554 355.612C371.394 358.042 370.915 361.506 368.485 363.346C366.055 365.186 362.59 364.707 360.75 362.277Z" fill="#F36623"/>
<path d="M450.657 311.337L365.159 358.681" stroke="#F36623" stroke-opacity="0.32" stroke-width="1.34702" stroke-linecap="round"/>
<path d="M409.179 408.117L312.86 461.29" stroke="#F36623" stroke-opacity="0.32" stroke-width="1.34702" stroke-linecap="round"/>
<path d="M384.43 547.387L251.166 492.182" stroke="#F36623" stroke-opacity="0.32" stroke-width="1.34702" stroke-linecap="round"/>
<path d="M287.686 658.959L251.165 492.183" stroke="#F36623" stroke-opacity="0.32" stroke-width="1.34702" stroke-linecap="round"/>
<path d="M312.86 461.289L251.166 492.182" stroke="#F36623" stroke-opacity="0.32" stroke-width="2.81528" stroke-linecap="round"/>
<path d="M396.339 380.625L409.178 408.118" stroke="#F36623" stroke-opacity="0.32" stroke-width="2.81528" stroke-linecap="round"/>
<path d="M287.686 658.958L128.421 604.672" stroke="#F36623" stroke-opacity="0.32" stroke-width="1.34702" stroke-linecap="round"/>
<path d="M306.646 388.387L396.338 380.624" stroke="#F36623" stroke-opacity="0.32" stroke-width="1.34702" stroke-linecap="round"/>
<path d="M306.646 388.387L409.178 408.117" stroke="#F36623" stroke-opacity="0.32" stroke-width="1.34702" stroke-linecap="round"/>
<path d="M306.645 388.387L251.164 492.183" stroke="#F36623" stroke-opacity="0.32" stroke-width="1.34702" stroke-linecap="round"/>
<path d="M128.419 604.671L251.164 492.182" stroke="#F36623" stroke-opacity="0.32" stroke-width="1.34702" stroke-linecap="round"/>
<path d="M251.615 391.099L251.167 492.184" stroke="#F36623" stroke-opacity="0.32" stroke-width="1.34702" stroke-linecap="round"/>
<path d="M306.645 388.388L251.612 391.098" stroke="#F36623" stroke-opacity="0.32" stroke-width="2.81528" stroke-linecap="round"/>
<path d="M291.211 444.54C292.672 444.12 294.207 444.968 294.628 446.429C295.049 447.89 294.2 449.425 292.739 449.846C291.278 450.267 289.743 449.418 289.322 447.957C288.902 446.496 289.75 444.961 291.211 444.54Z" fill="#F36623" fill-opacity="0.32"/>
<path d="M322.667 543.828C324.341 543.345 326.089 544.312 326.571 545.987C327.053 547.661 326.087 549.409 324.412 549.891C322.738 550.373 320.99 549.407 320.508 547.732C320.025 546.058 320.992 544.31 322.667 543.828Z" fill="#F36623" fill-opacity="0.32"/>
<path d="M374.232 513.388C376.117 512.845 378.082 513.932 378.625 515.817C379.167 517.702 378.081 519.667 376.196 520.21C374.311 520.752 372.346 519.665 371.803 517.781C371.261 515.896 372.347 513.931 374.232 513.388Z" fill="#F36623" fill-opacity="0.32"/>
<path d="M401.001 572.165C402.884 571.623 404.851 572.711 405.393 574.594C405.936 576.477 404.848 578.445 402.964 578.987C401.081 579.529 399.114 578.441 398.572 576.558C398.03 574.675 399.117 572.707 401.001 572.165Z" fill="#F36623" fill-opacity="0.32"/>
<path d="M333.862 481.508C334.488 481.328 335.147 481.692 335.327 482.318C335.507 482.943 335.143 483.602 334.517 483.782C333.891 483.962 333.233 483.598 333.053 482.972C332.873 482.346 333.237 481.688 333.862 481.508Z" fill="#F36623" fill-opacity="0.32"/>
<path d="M400.255 307.267C401.306 306.965 402.396 307.577 402.696 308.617C402.995 309.656 402.386 310.758 401.346 311.057C400.307 311.356 399.205 310.747 398.906 309.708C398.607 308.668 399.216 307.566 400.255 307.267Z" fill="#F36623" fill-opacity="0.32"/>
<path d="M389.171 643.695C391.264 643.093 392.472 640.908 391.87 638.815C391.267 636.722 389.082 635.513 386.989 636.116C384.896 636.718 383.688 638.904 384.29 640.997C384.893 643.09 387.078 644.298 389.171 643.695Z" fill="#F36623" fill-opacity="0.32"/>
<path d="M458.513 482.558C460.606 481.956 461.814 479.77 461.212 477.677C460.609 475.584 458.424 474.376 456.331 474.979C454.238 475.581 453.029 477.766 453.632 479.859C454.235 481.952 456.42 483.161 458.513 482.558Z" fill="#F36623" fill-opacity="0.32"/>
<path d="M409.659 486.774C411.752 486.171 412.961 483.986 412.358 481.893C411.756 479.8 409.57 478.591 407.477 479.194C405.384 479.796 404.176 481.982 404.779 484.075C405.381 486.168 407.566 487.376 409.659 486.774Z" fill="#F36623" fill-opacity="0.32"/>
<path d="M282.849 1041.61C277.394 1039.85 274.344 1034.17 276.037 1028.91C277.731 1023.65 283.526 1020.8 288.981 1022.56C294.436 1024.32 297.486 1030 295.793 1035.26C294.099 1040.53 288.305 1043.37 282.849 1041.61Z" fill="#F36623"/>
<path d="M260.699 781.424C257.192 780.295 255.213 776.695 256.279 773.383C257.345 770.071 261.052 768.301 264.559 769.43C268.066 770.558 270.045 774.158 268.979 777.471C267.913 780.783 264.206 782.553 260.699 781.424Z" fill="#F36623"/>
<path d="M164.721 748.195C162.77 747.567 160.686 748.637 160.058 750.588C159.43 752.539 160.499 754.623 162.45 755.251C164.401 755.879 166.486 754.81 167.114 752.859C167.741 750.908 166.672 748.823 164.721 748.195Z" fill="#F36623"/>
<path d="M195.466 933.286C190.4 931.655 187.565 926.385 189.133 921.514C190.7 916.643 196.078 914.017 201.143 915.647C206.209 917.278 209.045 922.548 207.477 927.419C205.909 932.289 200.532 934.916 195.466 933.286Z" fill="#F36623"/>
<path d="M143.969 713.484C138.904 711.854 136.119 706.426 137.75 701.36C139.38 696.295 144.808 693.51 149.874 695.14C154.939 696.771 157.724 702.199 156.094 707.265C154.463 712.33 149.035 715.115 143.969 713.484Z" fill="#F36623"/>
<path d="M269.395 840.285C266.471 839.344 263.392 840.791 262.514 843.52C261.635 846.249 263.292 849.221 266.216 850.162C269.14 851.104 272.218 849.656 273.097 846.927C273.975 844.198 272.319 841.226 269.395 840.285Z" fill="#F36623"/>
<path d="M189.484 774.073C185.393 772.756 183.143 768.372 184.46 764.281C185.777 760.189 190.162 757.94 194.253 759.257C198.344 760.574 200.594 764.958 199.277 769.05C197.96 773.141 193.575 775.39 189.484 774.073Z" fill="#F36623"/>
<path d="M175.94 801.638C170.68 799.945 167.788 794.308 169.481 789.047C171.174 783.787 176.811 780.895 182.072 782.588C187.332 784.281 190.224 789.918 188.531 795.179C186.838 800.439 181.201 803.331 175.94 801.638Z" fill="#F36623"/>
<path d="M317.927 875.853C318.238 871.885 321.733 868.936 325.732 869.266C329.732 869.597 332.722 873.081 332.411 877.049C332.1 881.017 328.605 883.965 324.606 883.635C320.606 883.305 317.616 879.821 317.927 875.853Z" fill="#F36623"/>
<path d="M272.928 783.448C269.241 781.744 267.628 777.403 269.325 773.753C271.023 770.103 275.388 768.525 279.075 770.229C282.762 771.934 284.375 776.274 282.678 779.925C280.98 783.575 276.616 785.153 272.928 783.448Z" fill="#F36623"/>
<path d="M329.324 776.259C326.597 775.382 323.673 776.882 322.795 779.608C321.918 782.335 323.418 785.259 326.145 786.137C328.871 787.014 331.795 785.514 332.673 782.788C333.551 780.061 332.05 777.137 329.324 776.259Z" fill="#F36623"/>
<path d="M163.584 751.723L262.515 775.78" stroke="#F36623" stroke-opacity="0.32" stroke-width="2.64554" stroke-linecap="round"/>
<path d="M198.419 924.114L262.515 775.78" stroke="#F36623" stroke-opacity="0.32" stroke-width="1.26581" stroke-linecap="round"/>
<path d="M146.92 704.312L163.585 751.722" stroke="#F36623" stroke-opacity="0.32" stroke-width="2.64554" stroke-linecap="round"/>
<path d="M268.16 845.336L262.517 775.778" stroke="#F36623" stroke-opacity="0.32" stroke-width="2.64554" stroke-linecap="round"/>
<path d="M286.027 1031.73L198.42 924.113" stroke="#F36623" stroke-opacity="0.32" stroke-width="1.26581" stroke-linecap="round"/>
<path d="M198.421 924.114L268.159 845.337" stroke="#F36623" stroke-opacity="0.32" stroke-width="2.64554" stroke-linecap="round"/>
<path d="M286.024 1031.73L268.155 845.337" stroke="#F36623" stroke-opacity="0.32" stroke-width="1.26581" stroke-linecap="round"/>
<path d="M192.106 767.131L163.584 751.722" stroke="#F36623" stroke-opacity="0.32" stroke-width="2.64554" stroke-linecap="round"/>
<path d="M192.108 767.131L146.922 704.312" stroke="#F36623" stroke-opacity="0.32" stroke-width="2.64554" stroke-linecap="round"/>
<path d="M179.245 792.581L163.586 751.723" stroke="#F36623" stroke-opacity="0.32" stroke-width="2.64554" stroke-linecap="round"/>
<path d="M192.107 767.132L268.159 845.337" stroke="#F36623" stroke-opacity="0.32" stroke-width="2.64554" stroke-linecap="round"/>
<path d="M146.922 704.313L179.245 792.581" stroke="#F36623" stroke-opacity="0.32" stroke-width="2.64554" stroke-linecap="round"/>
<path d="M87.2145 698.879C84.4881 698.002 81.5636 699.502 80.686 702.228C79.8085 704.955 81.3088 707.879 84.0352 708.757C86.7616 709.634 89.6861 708.134 90.5637 705.408C91.4412 702.681 89.9409 699.757 87.2145 698.879Z" fill="#F36623"/>
<path d="M146.734 703.774L84.7069 704.691" stroke="#F36623" stroke-opacity="0.32" stroke-width="1.26581" stroke-linecap="round"/>
<path d="M226.07 750.939C227.869 748.71 227.52 745.442 225.292 743.643C223.063 741.844 219.795 742.192 217.995 744.421C216.196 746.65 216.545 749.918 218.774 751.717C221.002 753.516 224.27 753.168 226.07 750.939Z" fill="#F36623"/>
<path d="M143.112 700.466L222.033 747.433" stroke="#F36623" stroke-opacity="0.32" stroke-width="1.26581" stroke-linecap="round"/>
<path d="M179.243 792.58L268.157 845.336" stroke="#F36623" stroke-opacity="0.32" stroke-width="1.26581" stroke-linecap="round"/>
<path d="M198.419 924.113L325.2 876.155" stroke="#F36623" stroke-opacity="0.32" stroke-width="1.26581" stroke-linecap="round"/>
<path d="M286.028 1031.73L325.202 876.156" stroke="#F36623" stroke-opacity="0.32" stroke-width="1.26581" stroke-linecap="round"/>
<path d="M268.158 845.336L325.201 876.155" stroke="#F36623" stroke-opacity="0.32" stroke-width="2.64554" stroke-linecap="round"/>
<path d="M192.105 767.133L179.243 792.581" stroke="#F36623" stroke-opacity="0.32" stroke-width="2.64554" stroke-linecap="round"/>
<path d="M286.026 1031.73L437.202 985.398" stroke="#F36623" stroke-opacity="0.32" stroke-width="1.26581" stroke-linecap="round"/>
<path d="M276.124 777.045L192.107 767.132" stroke="#F36623" stroke-opacity="0.32" stroke-width="1.26581" stroke-linecap="round"/>
<path d="M276.124 777.045L179.244 792.58" stroke="#F36623" stroke-opacity="0.32" stroke-width="1.26581" stroke-linecap="round"/>
<path d="M276.124 777.044L325.202 876.155" stroke="#F36623" stroke-opacity="0.32" stroke-width="1.26581" stroke-linecap="round"/>
<path d="M437.204 985.397L325.203 876.155" stroke="#F36623" stroke-opacity="0.32" stroke-width="1.26581" stroke-linecap="round"/>
<path d="M327.732 781.198L325.199 876.156" stroke="#F36623" stroke-opacity="0.32" stroke-width="1.26581" stroke-linecap="round"/>
<path d="M276.124 777.045L327.734 781.198" stroke="#F36623" stroke-opacity="0.32" stroke-width="2.64554" stroke-linecap="round"/>
<path d="M288.98 830.237C287.62 829.799 286.153 830.552 285.716 831.912C285.278 833.272 286.03 834.738 287.39 835.176C288.75 835.614 290.217 834.861 290.654 833.501C291.092 832.141 290.34 830.675 288.98 830.237Z" fill="#F36623" fill-opacity="0.32"/>
<path d="M256.534 922.574C254.975 922.072 253.305 922.929 252.804 924.488C252.302 926.047 253.159 927.716 254.717 928.218C256.276 928.72 257.946 927.863 258.448 926.304C258.95 924.745 258.093 923.076 256.534 922.574Z" fill="#F36623" fill-opacity="0.32"/>
<path d="M208.991 892.477C207.237 891.912 205.359 892.876 204.794 894.63C204.23 896.384 205.193 898.262 206.947 898.827C208.702 899.391 210.579 898.428 211.144 896.674C211.709 894.919 210.745 893.042 208.991 892.477Z" fill="#F36623" fill-opacity="0.32"/>
<path d="M182.132 946.901C180.379 946.337 178.499 947.301 177.935 949.054C177.371 950.807 178.335 952.687 180.088 953.251C181.841 953.815 183.72 952.851 184.285 951.098C184.849 949.345 183.885 947.465 182.132 946.901Z" fill="#F36623" fill-opacity="0.32"/>
<path d="M247.839 863.713C247.257 863.525 246.628 863.848 246.44 864.431C246.253 865.013 246.575 865.642 247.158 865.829C247.74 866.017 248.369 865.694 248.557 865.112C248.744 864.529 248.422 863.9 247.839 863.713Z" fill="#F36623" fill-opacity="0.32"/>
<path d="M190.571 698.117C189.593 697.802 188.551 698.346 188.24 699.313C187.928 700.281 188.468 701.333 189.436 701.645C190.403 701.956 191.456 701.416 191.767 700.449C192.079 699.481 191.539 698.429 190.571 698.117Z" fill="#F36623" fill-opacity="0.32"/>
<path d="M191.152 1014.43C189.203 1013.8 188.132 1011.72 188.759 1009.77C189.386 1007.82 191.474 1006.75 193.422 1007.38C195.371 1008 196.442 1010.09 195.815 1012.04C195.188 1013.99 193.1 1015.06 191.152 1014.43Z" fill="#F36623" fill-opacity="0.32"/>
<path d="M130.731 861.057C128.782 860.43 127.711 858.343 128.338 856.394C128.966 854.446 131.053 853.375 133.002 854.002C134.95 854.629 136.021 856.717 135.394 858.665C134.767 860.613 132.679 861.685 130.731 861.057Z" fill="#F36623" fill-opacity="0.32"/>
<path d="M176.494 866.444C174.546 865.817 173.475 863.729 174.102 861.78C174.729 859.832 176.817 858.761 178.765 859.388C180.714 860.015 181.785 862.103 181.158 864.051C180.53 866 178.443 867.071 176.494 866.444Z" fill="#F36623" fill-opacity="0.32"/>
<g opacity="0.7" filter="url(#filter0_f_521_864)">
<ellipse cx="209.584" cy="395.314" rx="209.584" ry="395.314" transform="matrix(0.825117 -0.564962 0.61451 0.788909 1030.29 384.814)" fill="#240801"/>
</g>
<g filter="url(#filter1_f_521_864)">
<ellipse cx="139.242" cy="320.139" rx="139.242" ry="320.139" transform="matrix(0.856719 -0.515784 0.567363 0.823468 958.786 399.39)" fill="#F36623"/>
</g>
<g opacity="0.7" filter="url(#filter2_f_521_864)">
<ellipse cx="225.646" cy="119.42" rx="225.646" ry="119.42" transform="matrix(0.712701 -0.701467 0.743863 0.668332 700 690.677)" fill="#F36623"/>
</g>
<defs>
<filter id="filter0_f_521_864" x="903.471" y="0.136963" width="1085.35" height="1156.27" filterUnits="userSpaceOnUse" color-interpolation-filters="sRGB">
<feFlood flood-opacity="0" result="BackgroundImageFix"/>
<feBlend mode="normal" in="SourceGraphic" in2="BackgroundImageFix" result="shape"/>
<feGaussianBlur stdDeviation="122.229" result="effect1_foregroundBlur_521_864"/>
</filter>
<filter id="filter1_f_521_864" x="797.924" y="73.4368" width="923.577" height="1035.52" filterUnits="userSpaceOnUse" color-interpolation-filters="sRGB">
<feFlood flood-opacity="0" result="BackgroundImageFix"/>
<feBlend mode="normal" in="SourceGraphic" in2="BackgroundImageFix" result="shape"/>
<feGaussianBlur stdDeviation="122.229" result="effect1_foregroundBlur_521_864"/>
</filter>
<filter id="filter2_f_521_864" x="521.436" y="190.442" width="856.427" height="843.527" filterUnits="userSpaceOnUse" color-interpolation-filters="sRGB">
<feFlood flood-opacity="0" result="BackgroundImageFix"/>
<feBlend mode="normal" in="SourceGraphic" in2="BackgroundImageFix" result="shape"/>
<feGaussianBlur stdDeviation="122.229" result="effect1_foregroundBlur_521_864"/>
</filter>
</defs>
</svg>
